<mxfile host="app.diagrams.net" modified="2021-12-10T13:14:17.453Z" agent="5.0 (Windows NT 10.0; Win64; x64) AppleWebKit/537.36 (KHTML, like Gecko) Chrome/96.0.4664.55 Safari/537.36 Edg/96.0.1054.43" etag="tFYq0dJJ8WwwELxXqUPT" version="15.9.1" type="github">
  <diagram name="Page-1" id="c37626ed-c26b-45fb-9056-f9ebc6bb27b6">
    <mxGraphModel dx="3944" dy="1588" grid="1" gridSize="10" guides="1" tooltips="1" connect="1" arrows="1" fold="1" page="1" pageScale="1" pageWidth="1100" pageHeight="850" background="none" math="0" shadow="0">
      <root>
        <mxCell id="0" />
        <mxCell id="1" parent="0" />
        <mxCell id="WAL1Nagu162Jrxox40Tc-1" value="metallb LoadBalancer" style="rounded=0;whiteSpace=wrap;html=1;fontSize=24;" vertex="1" parent="1">
          <mxGeometry x="395" y="360" width="750" height="50" as="geometry" />
        </mxCell>
        <mxCell id="WAL1Nagu162Jrxox40Tc-2" value="10.10.13.10" style="rounded=0;whiteSpace=wrap;html=1;fontSize=24;fontColor=#FF3333;" vertex="1" parent="1">
          <mxGeometry x="650" y="320" width="240" height="40" as="geometry" />
        </mxCell>
        <mxCell id="WAL1Nagu162Jrxox40Tc-19" style="edgeStyle=orthogonalEdgeStyle;rounded=0;orthogonalLoop=1;jettySize=auto;html=1;entryX=0.5;entryY=0;entryDx=0;entryDy=0;fontSize=24;fontColor=#000000;" edge="1" parent="1" source="WAL1Nagu162Jrxox40Tc-3" target="WAL1Nagu162Jrxox40Tc-12">
          <mxGeometry relative="1" as="geometry">
            <Array as="points">
              <mxPoint x="770" y="660" />
              <mxPoint x="185" y="660" />
            </Array>
          </mxGeometry>
        </mxCell>
        <mxCell id="WAL1Nagu162Jrxox40Tc-20" style="edgeStyle=orthogonalEdgeStyle;rounded=0;orthogonalLoop=1;jettySize=auto;html=1;entryX=0.5;entryY=0;entryDx=0;entryDy=0;fontSize=24;fontColor=#000000;" edge="1" parent="1" source="WAL1Nagu162Jrxox40Tc-3" target="WAL1Nagu162Jrxox40Tc-30">
          <mxGeometry relative="1" as="geometry">
            <mxPoint x="419" y="730" as="targetPoint" />
          </mxGeometry>
        </mxCell>
        <mxCell id="WAL1Nagu162Jrxox40Tc-21" style="edgeStyle=orthogonalEdgeStyle;rounded=0;orthogonalLoop=1;jettySize=auto;html=1;entryX=0.5;entryY=0;entryDx=0;entryDy=0;fontSize=24;fontColor=#000000;" edge="1" parent="1" source="WAL1Nagu162Jrxox40Tc-3" target="WAL1Nagu162Jrxox40Tc-34">
          <mxGeometry relative="1" as="geometry">
            <mxPoint x="887" y="730" as="targetPoint" />
          </mxGeometry>
        </mxCell>
        <mxCell id="WAL1Nagu162Jrxox40Tc-22" style="edgeStyle=orthogonalEdgeStyle;rounded=0;orthogonalLoop=1;jettySize=auto;html=1;entryX=0.5;entryY=0;entryDx=0;entryDy=0;fontSize=24;fontColor=#000000;" edge="1" parent="1" source="WAL1Nagu162Jrxox40Tc-3" target="WAL1Nagu162Jrxox40Tc-32">
          <mxGeometry relative="1" as="geometry">
            <mxPoint x="653" y="730" as="targetPoint" />
          </mxGeometry>
        </mxCell>
        <mxCell id="WAL1Nagu162Jrxox40Tc-23" style="edgeStyle=orthogonalEdgeStyle;rounded=0;orthogonalLoop=1;jettySize=auto;html=1;entryX=0.5;entryY=0;entryDx=0;entryDy=0;fontSize=24;fontColor=#000000;" edge="1" parent="1" source="WAL1Nagu162Jrxox40Tc-3" target="WAL1Nagu162Jrxox40Tc-36">
          <mxGeometry relative="1" as="geometry">
            <mxPoint x="1121" y="730" as="targetPoint" />
          </mxGeometry>
        </mxCell>
        <mxCell id="WAL1Nagu162Jrxox40Tc-24" style="edgeStyle=orthogonalEdgeStyle;rounded=0;orthogonalLoop=1;jettySize=auto;html=1;entryX=0.5;entryY=0;entryDx=0;entryDy=0;fontSize=24;fontColor=#000000;" edge="1" parent="1" source="WAL1Nagu162Jrxox40Tc-3" target="WAL1Nagu162Jrxox40Tc-40">
          <mxGeometry relative="1" as="geometry">
            <mxPoint x="1355" y="730" as="targetPoint" />
            <Array as="points">
              <mxPoint x="770" y="660" />
              <mxPoint x="1360" y="660" />
            </Array>
          </mxGeometry>
        </mxCell>
        <mxCell id="WAL1Nagu162Jrxox40Tc-3" value="&lt;font color=&quot;#000000&quot;&gt;nginx ingress&lt;/font&gt;" style="rounded=0;whiteSpace=wrap;html=1;fontSize=24;fontColor=#FF3333;" vertex="1" parent="1">
          <mxGeometry x="395" y="505" width="750" height="85" as="geometry" />
        </mxCell>
        <mxCell id="WAL1Nagu162Jrxox40Tc-8" value="" style="endArrow=classic;html=1;rounded=0;fontSize=24;fontColor=#000000;entryX=0.5;entryY=0;entryDx=0;entryDy=0;exitX=0.5;exitY=1;exitDx=0;exitDy=0;" edge="1" parent="1" source="WAL1Nagu162Jrxox40Tc-1" target="WAL1Nagu162Jrxox40Tc-3">
          <mxGeometry width="50" height="50" relative="1" as="geometry">
            <mxPoint x="495" y="900" as="sourcePoint" />
            <mxPoint x="545" y="850" as="targetPoint" />
          </mxGeometry>
        </mxCell>
        <mxCell id="WAL1Nagu162Jrxox40Tc-42" value="" style="group" vertex="1" connectable="0" parent="1">
          <mxGeometry x="110" y="730" width="150" height="90" as="geometry" />
        </mxCell>
        <mxCell id="WAL1Nagu162Jrxox40Tc-12" value="ClusterIP" style="rounded=0;whiteSpace=wrap;html=1;fontSize=24;fontColor=#FF3333;" vertex="1" parent="WAL1Nagu162Jrxox40Tc-42">
          <mxGeometry width="150" height="30" as="geometry" />
        </mxCell>
        <mxCell id="WAL1Nagu162Jrxox40Tc-28" value="jenkins service" style="rounded=0;whiteSpace=wrap;html=1;fontSize=24;fontColor=#000000;" vertex="1" parent="WAL1Nagu162Jrxox40Tc-42">
          <mxGeometry y="30" width="150" height="60" as="geometry" />
        </mxCell>
        <mxCell id="WAL1Nagu162Jrxox40Tc-43" value="" style="group" vertex="1" connectable="0" parent="1">
          <mxGeometry x="345" y="730" width="150" height="90" as="geometry" />
        </mxCell>
        <mxCell id="WAL1Nagu162Jrxox40Tc-30" value="ClusterIP" style="rounded=0;whiteSpace=wrap;html=1;fontSize=24;fontColor=#FF3333;" vertex="1" parent="WAL1Nagu162Jrxox40Tc-43">
          <mxGeometry width="150" height="30" as="geometry" />
        </mxCell>
        <mxCell id="WAL1Nagu162Jrxox40Tc-31" value="awx&lt;br&gt;service" style="rounded=0;whiteSpace=wrap;html=1;fontSize=24;fontColor=#000000;" vertex="1" parent="WAL1Nagu162Jrxox40Tc-43">
          <mxGeometry y="30" width="150" height="60" as="geometry" />
        </mxCell>
        <mxCell id="WAL1Nagu162Jrxox40Tc-44" value="" style="group" vertex="1" connectable="0" parent="1">
          <mxGeometry x="575" y="730" width="150" height="90" as="geometry" />
        </mxCell>
        <mxCell id="WAL1Nagu162Jrxox40Tc-32" value="ClusterIP" style="rounded=0;whiteSpace=wrap;html=1;fontSize=24;fontColor=#FF3333;" vertex="1" parent="WAL1Nagu162Jrxox40Tc-44">
          <mxGeometry width="150" height="30" as="geometry" />
        </mxCell>
        <mxCell id="WAL1Nagu162Jrxox40Tc-33" value="consul service" style="rounded=0;whiteSpace=wrap;html=1;fontSize=24;fontColor=#000000;" vertex="1" parent="WAL1Nagu162Jrxox40Tc-44">
          <mxGeometry y="30" width="150" height="60" as="geometry" />
        </mxCell>
        <mxCell id="WAL1Nagu162Jrxox40Tc-46" value="" style="group" vertex="1" connectable="0" parent="1">
          <mxGeometry x="1045" y="730" width="150" height="90" as="geometry" />
        </mxCell>
        <mxCell id="WAL1Nagu162Jrxox40Tc-36" value="ClusterIP" style="rounded=0;whiteSpace=wrap;html=1;fontSize=24;fontColor=#FF3333;" vertex="1" parent="WAL1Nagu162Jrxox40Tc-46">
          <mxGeometry width="150" height="30" as="geometry" />
        </mxCell>
        <mxCell id="WAL1Nagu162Jrxox40Tc-37" value="prometheus service" style="rounded=0;whiteSpace=wrap;html=1;fontSize=24;fontColor=#000000;" vertex="1" parent="WAL1Nagu162Jrxox40Tc-46">
          <mxGeometry y="30" width="150" height="60" as="geometry" />
        </mxCell>
        <mxCell id="WAL1Nagu162Jrxox40Tc-47" value="" style="group" vertex="1" connectable="0" parent="1">
          <mxGeometry x="1285" y="730" width="150" height="90" as="geometry" />
        </mxCell>
        <mxCell id="WAL1Nagu162Jrxox40Tc-40" value="ClusterIP" style="rounded=0;whiteSpace=wrap;html=1;fontSize=24;fontColor=#FF3333;" vertex="1" parent="WAL1Nagu162Jrxox40Tc-47">
          <mxGeometry width="150" height="30" as="geometry" />
        </mxCell>
        <mxCell id="WAL1Nagu162Jrxox40Tc-41" value="grafana&lt;br&gt;service" style="rounded=0;whiteSpace=wrap;html=1;fontSize=24;fontColor=#000000;" vertex="1" parent="WAL1Nagu162Jrxox40Tc-47">
          <mxGeometry y="30" width="150" height="60" as="geometry" />
        </mxCell>
        <mxCell id="WAL1Nagu162Jrxox40Tc-60" value="" style="group" vertex="1" connectable="0" parent="1">
          <mxGeometry x="815" y="730" width="150" height="90" as="geometry" />
        </mxCell>
        <mxCell id="WAL1Nagu162Jrxox40Tc-34" value="ClusterIP" style="rounded=0;whiteSpace=wrap;html=1;fontSize=24;fontColor=#FF3333;" vertex="1" parent="WAL1Nagu162Jrxox40Tc-60">
          <mxGeometry width="150" height="30" as="geometry" />
        </mxCell>
        <mxCell id="WAL1Nagu162Jrxox40Tc-35" value="vault&lt;br&gt;service" style="rounded=0;whiteSpace=wrap;html=1;fontSize=24;fontColor=#000000;" vertex="1" parent="WAL1Nagu162Jrxox40Tc-60">
          <mxGeometry y="30" width="150" height="60" as="geometry" />
        </mxCell>
        <mxCell id="WAL1Nagu162Jrxox40Tc-67" style="edgeStyle=orthogonalEdgeStyle;rounded=0;orthogonalLoop=1;jettySize=auto;html=1;entryX=0.5;entryY=0;entryDx=0;entryDy=0;fontSize=24;fontColor=#000000;" edge="1" parent="1" source="WAL1Nagu162Jrxox40Tc-61" target="WAL1Nagu162Jrxox40Tc-2">
          <mxGeometry relative="1" as="geometry">
            <Array as="points">
              <mxPoint x="-260" y="260" />
              <mxPoint x="770" y="260" />
            </Array>
          </mxGeometry>
        </mxCell>
        <mxCell id="WAL1Nagu162Jrxox40Tc-61" value="&lt;font color=&quot;#000000&quot;&gt;jenkins.rndops.brainlab.net&lt;/font&gt;" style="rounded=0;whiteSpace=wrap;html=1;fontSize=24;fontColor=#FF3333;" vertex="1" parent="1">
          <mxGeometry x="-450" y="110" width="390" height="40" as="geometry" />
        </mxCell>
        <mxCell id="WAL1Nagu162Jrxox40Tc-68" style="edgeStyle=orthogonalEdgeStyle;rounded=0;orthogonalLoop=1;jettySize=auto;html=1;fontSize=24;fontColor=#000000;" edge="1" parent="1" source="WAL1Nagu162Jrxox40Tc-62">
          <mxGeometry relative="1" as="geometry">
            <mxPoint x="770" y="320" as="targetPoint" />
            <Array as="points">
              <mxPoint x="150" y="260" />
              <mxPoint x="770" y="260" />
            </Array>
          </mxGeometry>
        </mxCell>
        <mxCell id="WAL1Nagu162Jrxox40Tc-62" value="&lt;font color=&quot;#000000&quot;&gt;ansible.rndops.brainlab.net&lt;/font&gt;" style="rounded=0;whiteSpace=wrap;html=1;fontSize=24;fontColor=#FF3333;" vertex="1" parent="1">
          <mxGeometry x="-40" y="110" width="390" height="40" as="geometry" />
        </mxCell>
        <mxCell id="WAL1Nagu162Jrxox40Tc-69" style="edgeStyle=orthogonalEdgeStyle;rounded=0;orthogonalLoop=1;jettySize=auto;html=1;entryX=0.5;entryY=0;entryDx=0;entryDy=0;fontSize=24;fontColor=#000000;" edge="1" parent="1" source="WAL1Nagu162Jrxox40Tc-63" target="WAL1Nagu162Jrxox40Tc-2">
          <mxGeometry relative="1" as="geometry">
            <Array as="points">
              <mxPoint x="565" y="260" />
              <mxPoint x="770" y="260" />
            </Array>
          </mxGeometry>
        </mxCell>
        <mxCell id="WAL1Nagu162Jrxox40Tc-63" value="&lt;font color=&quot;#000000&quot;&gt;consul.rndops.brainlab.net&lt;/font&gt;" style="rounded=0;whiteSpace=wrap;html=1;fontSize=24;fontColor=#FF3333;" vertex="1" parent="1">
          <mxGeometry x="370" y="110" width="390" height="40" as="geometry" />
        </mxCell>
        <mxCell id="WAL1Nagu162Jrxox40Tc-70" style="edgeStyle=orthogonalEdgeStyle;rounded=0;orthogonalLoop=1;jettySize=auto;html=1;entryX=0.5;entryY=0;entryDx=0;entryDy=0;fontSize=24;fontColor=#000000;" edge="1" parent="1" source="WAL1Nagu162Jrxox40Tc-64" target="WAL1Nagu162Jrxox40Tc-2">
          <mxGeometry relative="1" as="geometry">
            <Array as="points">
              <mxPoint x="975" y="260" />
              <mxPoint x="770" y="260" />
            </Array>
          </mxGeometry>
        </mxCell>
        <mxCell id="WAL1Nagu162Jrxox40Tc-64" value="&lt;font color=&quot;#000000&quot;&gt;vault.rndops.brainlab.net&lt;/font&gt;" style="rounded=0;whiteSpace=wrap;html=1;fontSize=24;fontColor=#FF3333;" vertex="1" parent="1">
          <mxGeometry x="780" y="110" width="390" height="40" as="geometry" />
        </mxCell>
        <mxCell id="WAL1Nagu162Jrxox40Tc-71" style="edgeStyle=orthogonalEdgeStyle;rounded=0;orthogonalLoop=1;jettySize=auto;html=1;entryX=0.5;entryY=0;entryDx=0;entryDy=0;fontSize=24;fontColor=#000000;" edge="1" parent="1" source="WAL1Nagu162Jrxox40Tc-65" target="WAL1Nagu162Jrxox40Tc-2">
          <mxGeometry relative="1" as="geometry">
            <Array as="points">
              <mxPoint x="1385" y="260" />
              <mxPoint x="770" y="260" />
            </Array>
          </mxGeometry>
        </mxCell>
        <mxCell id="WAL1Nagu162Jrxox40Tc-65" value="&lt;font color=&quot;#000000&quot;&gt;prometheus.rndops.brainlab.net&lt;/font&gt;" style="rounded=0;whiteSpace=wrap;html=1;fontSize=24;fontColor=#FF3333;" vertex="1" parent="1">
          <mxGeometry x="1190" y="110" width="390" height="40" as="geometry" />
        </mxCell>
        <mxCell id="WAL1Nagu162Jrxox40Tc-74" style="edgeStyle=orthogonalEdgeStyle;rounded=0;orthogonalLoop=1;jettySize=auto;html=1;entryX=0.5;entryY=0;entryDx=0;entryDy=0;fontSize=24;fontColor=#000000;" edge="1" parent="1" source="WAL1Nagu162Jrxox40Tc-66" target="WAL1Nagu162Jrxox40Tc-2">
          <mxGeometry relative="1" as="geometry">
            <Array as="points">
              <mxPoint x="1795" y="260" />
              <mxPoint x="770" y="260" />
            </Array>
          </mxGeometry>
        </mxCell>
        <mxCell id="WAL1Nagu162Jrxox40Tc-66" value="&lt;font color=&quot;#000000&quot;&gt;grafana.rndops.brainlab.net&lt;/font&gt;" style="rounded=0;whiteSpace=wrap;html=1;fontSize=24;fontColor=#FF3333;" vertex="1" parent="1">
          <mxGeometry x="1600" y="110" width="390" height="40" as="geometry" />
        </mxCell>
      </root>
    </mxGraphModel>
  </diagram>
</mxfile>
